<svg width="12" height="12" viewBox="0 0 12 12" fill="none" xmlns="http://www.w3.org/2000/svg">
<path d="M4.53058 1.38716C4.91753 0.341459 6.39655 0.341459 6.7835 1.38716L7.53347 3.41394C7.65513 3.7427 7.91434 4.00191 8.2431 4.12357L10.2699 4.87354C11.3156 5.26049 11.3156 6.73951 10.2699 7.12646L8.2431 7.87643C7.91434 7.99808 7.65513 8.25729 7.53347 8.58606L6.7835 10.6128C6.39655 11.6585 4.91753 11.6585 4.53058 10.6128L3.78061 8.58606C3.65896 8.2573 3.39974 7.99808 3.07098 7.87643L1.04421 7.12646C-0.00149739 6.73951 -0.00149739 5.26049 1.04421 4.87354L3.07098 4.12357C3.39974 4.00191 3.65896 3.7427 3.78061 3.41394L4.53058 1.38716Z" fill="white"/>
</svg>
